HIERARCHY
ROOT Hips
{
	OFFSET -14.64140 90.27770 -84.91600
	CHANNELS 6 Xposition Yposition Zposition Zrotation Xrotation Yrotation
	JOINT Spine
	{
		OFFSET 0.00000 13.20850 -1.60436
		CHANNELS 3 Zrotation Xrotation Yrotation
		JOINT Spine1
		{
			OFFSET 0.00000 8.61716 0.00000
			CHANNELS 3 Zrotation Xrotation Yrotation
			JOINT Spine2
			{
				OFFSET 0.00000 8.61717 0.00000
				CHANNELS 3 Zrotation Xrotation Yrotation
				JOINT Spine3
				{
					OFFSET 0.00000 8.61717 0.00000
					CHANNELS 3 Zrotation Xrotation Yrotation
					JOINT Neck
					{
						OFFSET 0.00000 11.07920 1.10792
						CHANNELS 3 Zrotation Xrotation Yrotation
						JOINT Neck1
						{
							OFFSET 0.00000 7.08032 0.00000
							CHANNELS 3 Zrotation Xrotation Yrotation
							JOINT Head
							{
								OFFSET 0.00000 7.08031 0.00000
								CHANNELS 3 Zrotation Xrotation Yrotation
								End site
								{
									OFFSET 0.00000 0.00000 0.00000
								}
							}
						}
					}
					JOINT RightShoulder
					{
						OFFSET -0.01000 7.91373 5.19711
						CHANNELS 3 Zrotation Xrotation Yrotation
						JOINT RightArm
						{
							OFFSET -18.41580 0.00000 0.00000
							CHANNELS 3 Zrotation Xrotation Yrotation
							JOINT RightForeArm
							{
								OFFSET -29.11090 0.00000 0.00000
								CHANNELS 3 Zrotation Xrotation Yrotation
								JOINT RightHand
								{
									OFFSET -24.65040 0.00000 0.00000
									CHANNELS 3 Zrotation Xrotation Yrotation
									JOINT RightHandThumb1
									{
										OFFSET -5.35114 -0.85590 3.97906
										CHANNELS 3 Zrotation Xrotation Yrotation
										JOINT RightHandThumb2
										{
											OFFSET -4.52789 0.00000 0.00000
											CHANNELS 3 Zrotation Xrotation Yrotation
											JOINT RightHandThumb3
											{
												OFFSET -2.46976 0.00000 0.00000
												CHANNELS 3 Zrotation Xrotation Yrotation
												End site
												{
													OFFSET 0.00000 0.00000 0.00000
												}
											}
										}
									}
									JOINT RightHandIndex1
									{
										OFFSET -14.26970 0.00000 2.88139
										CHANNELS 3 Zrotation Xrotation Yrotation
										JOINT RightHandIndex2
										{
											OFFSET -5.48836 0.00000 0.00000
											CHANNELS 3 Zrotation Xrotation Yrotation
											JOINT RightHandIndex3
											{
												OFFSET -3.01859 0.00000 0.00000
												CHANNELS 3 Zrotation Xrotation Yrotation
												End site
												{
													OFFSET 0.00000 0.00000 0.00000
												}
											}
										}
									}
									JOINT RightHandMiddle1
									{
										OFFSET -14.26970 0.00000 -0.09147
										CHANNELS 3 Zrotation Xrotation Yrotation
										JOINT RightHandMiddle2
										{
											OFFSET -6.17441 0.00000 0.00000
											CHANNELS 3 Zrotation Xrotation Yrotation
											JOINT RightHandMiddle3
											{
												OFFSET -3.56743 0.00000 0.00000
												CHANNELS 3 Zrotation Xrotation Yrotation
												End site
												{
													OFFSET 0.00000 0.00000 0.00000
												}
											}
										}
									}
									JOINT RightHandRing1
									{
										OFFSET -12.69180 0.00000 -3.06433
										CHANNELS 3 Zrotation Xrotation Yrotation
										JOINT RightHandRing2
										{
											OFFSET -5.62556 0.00000 0.00000
											CHANNELS 3 Zrotation Xrotation Yrotation
											JOINT RightHandRing3
											{
												OFFSET -3.56744 0.00000 0.00000
												CHANNELS 3 Zrotation Xrotation Yrotation
												End site
												{
													OFFSET 0.00000 0.00000 0.00000
												}
											}
										}
									}
									JOINT RightHandPinky1
									{
										OFFSET -11.11390 0.00000 -6.03719
										CHANNELS 3 Zrotation Xrotation Yrotation
										JOINT RightHandPinky2
										{
											OFFSET -4.52789 0.00000 0.00000
											CHANNELS 3 Zrotation Xrotation Yrotation
											JOINT RightHandPinky3
											{
												OFFSET -2.46976 0.00000 0.00000
												CHANNELS 3 Zrotation Xrotation Yrotation
												End site
												{
													OFFSET 0.00000 0.00000 0.00000
												}
											}
										}
									}
								}
							}
						}
					}
					JOINT LeftShoulder
					{
						OFFSET 0.01000 7.91373 5.19711
						CHANNELS 3 Zrotation Xrotation Yrotation
						JOINT LeftArm
						{
							OFFSET 18.41580 0.00000 0.00000
							CHANNELS 3 Zrotation Xrotation Yrotation
							JOINT LeftForeArm
							{
								OFFSET 29.11090 0.00000 0.00000
								CHANNELS 3 Zrotation Xrotation Yrotation
								JOINT LeftHand
								{
									OFFSET 24.65040 0.00000 0.00000
									CHANNELS 3 Zrotation Xrotation Yrotation
									JOINT LeftHandThumb1
									{
										OFFSET 5.35114 -0.85590 3.97906
										CHANNELS 3 Zrotation Xrotation Yrotation
										JOINT LeftHandThumb2
										{
											OFFSET 4.52789 0.00000 0.00000
											CHANNELS 3 Zrotation Xrotation Yrotation
											JOINT LeftHandThumb3
											{
												OFFSET 2.46977 0.00000 0.00000
												CHANNELS 3 Zrotation Xrotation Yrotation
												End site
												{
													OFFSET 0.00000 0.00000 0.00000
												}
											}
										}
									}
									JOINT LeftHandIndex1
									{
										OFFSET 14.26970 0.00000 2.88139
										CHANNELS 3 Zrotation Xrotation Yrotation
										JOINT LeftHandIndex2
										{
											OFFSET 5.48836 0.00000 0.00000
											CHANNELS 3 Zrotation Xrotation Yrotation
											JOINT LeftHandIndex3
											{
												OFFSET 3.01859 0.00000 0.00000
												CHANNELS 3 Zrotation Xrotation Yrotation
												End site
												{
													OFFSET 0.00000 0.00000 0.00000
												}
											}
										}
									}
									JOINT LeftHandMiddle1
									{
										OFFSET 14.26970 0.00000 -0.09147
										CHANNELS 3 Zrotation Xrotation Yrotation
										JOINT LeftHandMiddle2
										{
											OFFSET 6.17440 0.00000 0.00000
											CHANNELS 3 Zrotation Xrotation Yrotation
											JOINT LeftHandMiddle3
											{
												OFFSET 3.56744 0.00000 0.00000
												CHANNELS 3 Zrotation Xrotation Yrotation
												End site
												{
													OFFSET 0.00000 0.00000 0.00000
												}
											}
										}
									}
									JOINT LeftHandRing1
									{
										OFFSET 12.69180 0.00000 -3.06433
										CHANNELS 3 Zrotation Xrotation Yrotation
										JOINT LeftHandRing2
										{
											OFFSET 5.62556 0.00000 0.00000
											CHANNELS 3 Zrotation Xrotation Yrotation
											JOINT LeftHandRing3
											{
												OFFSET 3.56744 0.00000 0.00000
												CHANNELS 3 Zrotation Xrotation Yrotation
												End site
												{
													OFFSET 0.00000 0.00000 0.00000
												}
											}
										}
									}
									JOINT LeftHandPinky1
									{
										OFFSET 11.11390 0.00000 -6.03719
										CHANNELS 3 Zrotation Xrotation Yrotation
										JOINT LeftHandPinky2
										{
											OFFSET 4.52789 0.00000 0.00000
											CHANNELS 3 Zrotation Xrotation Yrotation
											JOINT LeftHandPinky3
											{
												OFFSET 2.46976 0.00000 0.00000
												CHANNELS 3 Zrotation Xrotation Yrotation
												End site
												{
													OFFSET 0.00000 0.00000 0.00000
												}
											}
										}
									}
								}
							}
						}
					}
					JOINT pCube4
					{
						OFFSET 0.00000 10.91090 1.10792
						CHANNELS 3 Zrotation Xrotation Yrotation
						End site
						{
							OFFSET 0.00000 0.00000 0.00000
						}
					}
				}
			}
		}
	}
	JOINT RightUpLeg
	{
		OFFSET -9.98441 0.00000 0.00000
		CHANNELS 3 Zrotation Xrotation Yrotation
		JOINT RightLeg
		{
			OFFSET 0.00000 -42.11790 0.00000
			CHANNELS 3 Zrotation Xrotation Yrotation
			JOINT RightFoot
			{
				OFFSET 0.00000 -45.00020 -0.00001
				CHANNELS 3 Zrotation Xrotation Yrotation
				JOINT RightForeFoot
				{
					OFFSET 0.00000 -3.74820 0.00000
					CHANNELS 3 Zrotation Xrotation Yrotation
					JOINT RightToeBase
					{
						OFFSET 0.00000 0.06325 14.43120
						CHANNELS 3 Zrotation Xrotation Yrotation
						End site
						{
							OFFSET 0.00000 0.00000 0.00000
						}
					}
				}
			}
		}
	}
	JOINT LeftUpLeg
	{
		OFFSET 9.98441 0.00000 0.00000
		CHANNELS 3 Zrotation Xrotation Yrotation
		JOINT LeftLeg
		{
			OFFSET 0.00000 -42.11800 0.00000
			CHANNELS 3 Zrotation Xrotation Yrotation
			JOINT LeftFoot
			{
				OFFSET 0.00000 -45.00070 0.00000
				CHANNELS 3 Zrotation Xrotation Yrotation
				JOINT LeftForeFoot
				{
					OFFSET 0.00000 -3.74824 0.00000
					CHANNELS 3 Zrotation Xrotation Yrotation
					JOINT LeftToeBase
					{
						OFFSET 0.00000 0.06325 14.43110
						CHANNELS 3 Zrotation Xrotation Yrotation
						End site
						{
							OFFSET 0.00000 0.00000 0.00000
						}
					}
				}
			}
		}
	}
}
MOTION
Frames: 4
Frame Time: 0.050000
-0.00980174312697273 -0.006749320465146147 0.045363593396472834 0.011338296131423314 -0.009912061139488601 0.03775508883052858 -1.3318639855626189 0.7365430125148272 -0.9938195183410842 -0.9325220441447194 3.917197516114465 0.3662879655064443 -1.1853880716617502 -1.701950297673485 -0.8234642400036702 0.9923678617484833 0.4974283935984473 -0.7504656964967533 0.8556219572320013 12.457523040507214 -2.627154204745135 0.05801527492344513 -0.6979884402747992 -8.072995711304433 0.9718443461357018 -16.196524043127724 -0.6340633462872983 -4.62481726896154 1.4771731042958312 -15.6707448412781 72.78634911448276 23.009701216448452 3.6637139342666836 2.35762782805886 2.038988537278624 41.4626395962073 21.145982487237497 -0.1153767991149058 -3.9013538122007945 4.56148300997489 -0.15115563190134595 -1.587790074382912 -0.005056825361300594 -0.03474174386449475 -56.25616621122653 -0.0418868578708498 0.028036954859951724 -56.22668772692239 -38.747841423277904 0.04300180135638747 0.009366911366100648 -0.024182875135635246 -0.0028231754638431195 -0.047302656238149575 -0.02169287819787443 -0.016740756430363976 0.02134295136805736 -36.67402031785593 0.037195696513320935 0.0011238748871428503 0.005933256423013582 -0.017475020731566187 0.014138585659317944 -0.01712456909901872 0.038381338457256955 -0.011418547301154186 -19.79036032433805 -0.03912620909409148 -0.04674741752179794 0.005785086781066659 -0.010012030630390812 0.01028400674031455 -0.04835142120673609 0.01920356607382274 -0.045400417916514155 24.048399205117473 -0.012596328728056841 -0.011633326858743302 28.8213962165378 -0.04771411724931566 -0.018201586637556937 28.89466322532469 0.020824855527265696 0.009505067174311235 3.5992002757696064 0.9012672270148149 13.463470662694824 -71.80487795693868 26.425415469859974 -0.18171674304030738 -3.848052412531885 -8.715986869657547 -42.24149251253515 -14.175600093183514 -0.6357987122430329 2.9198837222644323 -0.4507443499282457 0.0794827919006453 -8.129448897958623 -0.0017945268214144784 0.03190286432588146 44.608169660458394 -0.031146498866716915 -0.031843734090949365 44.608151431940286 12.47856609109911 -0.010438704551141145 0.020765083050102846 -0.039250296520093944 -0.024261461225535727 0.019664153461090288 0.004063808734178308 -0.024735380062409194 0.029960550257639787 11.101417138027752 0.04829282098543459 -0.02453234991784529 -0.01018436881907021 -0.011105180415317753 0.027505364377453937 -0.025158048651606552 -0.04354104147081497 0.03882124343573821 4.752963408277246 0.012648806637255003 0.023151317215910322 0.0024369486772156824 -0.02200091245099378 -0.045421608255190184 0.023623243634878034 -0.020343820253649326 0.00813719962420674 -5.608016843430761 0.033304917095871626 -0.03200870706063192 -6.718820424573865 -0.017027710084735075 -0.013375343929720828 -6.682871812915302 0.0014146137260101163 0.044394319271247436 0.024934711451596744 -0.009250605666089958 -0.04339600138666064 8.033899307973527 3.455971861794377 -19.26369429168334 0.014950664414218068 10.387730960581441 0.016293507323367307 -5.64133358488324 -15.627212471550465 3.174174388296043 -0.021525621157772058 -0.037720701395145946 0.03659804855047021 -0.030587454830652165 4.701520035774561 0.017033222728574327 12.490492966184284 -8.22628480282324 6.849823449894945 -0.017975126957941553 46.42923204554957 0.03639830383432197 -4.3533255985988415 -14.730131382562481 -3.825072233557423 0.009808560921980925 -0.02022575057664231 -0.03444196667415886 -0.021378993856540456 -10.747082947521383 -0.002509707743328899 
-0.024965280586057625 0.0013118873854559968 -0.04501262514845677 0.031511128963359496 -0.02071618154454824 -0.009083874117498902 -1.2347373277886216 0.8213676539888921 -1.0314116730627876 -0.9071331268343796 3.9219461620703004 0.3394069242185479 -1.1737572238578171 -1.7470713232736226 -0.7776992941351257 0.9665774692392319 0.49300640042527377 -0.7817678534442047 0.8652022403964046 12.403528340440769 -2.836556547546883 0.0638235228518847 -0.7710434345790632 -8.515780829504603 1.0343910452323357 -16.34751953183646 -0.7400860970755155 -4.694654508194859 1.4807860258891867 -15.851953856210459 73.01601322800397 22.65576395692959 3.4611951108112424 1.930413343016421 2.000689019533486 42.025998114347836 20.6975653817438 -0.13867358191791343 -3.8551288448285876 4.552831464331749 -0.14285972829885973 -1.640844787352166 0.038529421903256277 -0.03966921680252528 -56.232698522332036 0.005084378140706617 -0.029903576734383038 -56.21856488110111 -38.79592717858234 0.037684360890029064 0.0076746818544568916 -0.02727381354862796 0.005819715424096886 0.016509539626470185 -0.049373666248465724 0.006056820482931215 -0.010081785382025428 -36.69159831465468 0.046701819437868636 0.013247688692784294 0.020082775777977468 -0.021000128710298348 -0.00874086055203195 -0.020105531481965068 -0.026158513117887517 -0.010299797973253255 -19.762383691633055 -0.01737332256333787 0.03320626815559269 0.03106902802375303 0.03993776860472074 0.009945305663380645 -0.04040550356310517 -0.04719950092669186 -0.03200046853517014 24.09379560567221 0.03561192563919619 0.02612781620703211 28.87596248026468 0.028260753015470857 0.010818544827747727 28.89586725456208 -0.03524412390715302 0.019179764485533043 3.5183934258864675 0.9530862907945744 13.51585263142229 -72.05231616071619 26.903786927030293 -0.02509001955637396 -2.206656354003044 -9.006995114511799 -42.668453457548 -13.998311908553278 -0.7795061326403406 3.10629303786147 -0.474827162687514 0.06857679099289639 -8.112847141271025 -0.016954198339282963 0.04541688713467776 44.56282527146226 0.020751080565938537 0.04922778905123713 44.58554280075704 12.460989951594524 0.03266362430926539 -0.004301133835137788 -0.03714406829259557 -0.018498228851033124 0.007932900251638859 -0.03751119340060903 -0.013346426904810683 -0.011471486233020044 11.139257933358044 -0.02882068027952757 0.03978185717637961 0.046474060005736895 0.013930239183263509 -0.025658528122017993 0.02896691056769183 -0.02737083472388184 -0.005327687848967632 4.77764489470952 0.017990308434619937 -0.004039151435499954 0.049408526830156986 -0.04036962563738425 0.016688837839555045 0.003532554234032095 -0.0026883278782844165 0.045061539717517654 -5.643928090549197 0.042841607444705596 -0.04336333043368787 -6.726792914095431 -0.03568403101806923 0.04683181843504364 -6.682483068283478 -0.025748643028715375 0.031171727543544695 0.008763344647877104 -0.007398106796787345 -0.001476567696457421 8.011714977761786 3.4871661109997767 -19.199701213909492 0.03605838620194235 10.358775890639683 -0.016400560812422173 -5.593750525837252 -15.645093333649784 3.222854993514378 -0.016421195876529446 -0.016583011797229524 0.03287337735645442 -0.004103896390375952 4.674985076018187 0.0057560446953301555 12.41397247240176 -8.224556756646729 6.931351203215934 0.006022178856187868 46.39554558814641 0.009848055444890326 -4.332429634573276 -14.76888495834897 -3.8570189255569933 0.02628883277517576 -0.004397020376642543 -0.01695672847382425 -0.04058819697479361 -10.770385306015532 0.029167304284612734 
0.0012844065788774504 -0.0003452581964145425 -0.015439221331821507 0.00965690573595853 0.03525488248341068 0.02687949925046952 -1.1624088535634385 0.8538526297849313 -1.0820558705041665 -0.9191981574861765 3.9181698455978355 0.37402569124533314 -1.2492066700805846 -1.6895409023535057 -0.8030161755998593 1.0671010071695946 0.5463542686816354 -0.7912569482063934 0.970484233802259 12.299795090410049 -3.0926988913237574 0.12732420686557427 -0.8471449825486126 -8.985525340234048 1.0988103016428266 -16.540578790660028 -0.7585657064255944 -4.828736930061324 1.5736792005081646 -15.93838789772223 73.03836608923942 22.311795633237544 2.8353654915334094 1.5271051215047307 1.867228354340018 42.35656655517792 20.426924426085332 -0.05431601876271848 -3.8800471990215333 4.508120480079776 -0.09642877675469785 -1.5624123599025717 0.012394075839592148 -0.029798777031714876 -56.25510440561902 0.005135670255479998 -0.04921415409964467 -56.21067095832977 -38.762192665582496 0.00404276872946784 -0.0012343610922883488 0.006395938754607337 -0.022381230062640093 -0.019075881936914837 0.01639742461015382 -0.001369693929507731 0.010899653826121247 -36.702163875502464 0.04455919277716714 -0.00015660339876284564 0.011355745229867343 0.033489691225721326 0.04189149921031348 -0.04969227409489894 -5.4450495648702096e-05 -0.033203139773559466 -19.75078017365245 -0.02949053129705839 -0.045469706529014296 0.028731099965366602 0.01644100794084158 0.042485656438917135 -0.008387700721690068 0.016821043963601547 0.019525084572758408 24.057563930884776 0.011982745362065174 -0.021769949576024246 28.909098123214818 0.006403501117639837 -0.019791442039986874 28.892434676619732 0.008771934798642647 -0.009715756039821718 3.541838563156698 0.9264195033881437 13.540449978326588 -72.1410447942296 27.310131738799047 0.18683490301380523 -1.1389448545500849 -9.02767446591459 -42.82732875282804 -13.902353482809813 -0.7493081102159721 3.2249699505113845 -0.5088850747483462 0.04044607324009761 -8.169745858650318 0.02419898390549347 0.03227656789891096 44.55695669507573 0.024733002115901962 -0.006470248004567807 44.58918919763605 12.475410202566835 0.008573255762391301 0.009868848466366728 -0.002940226125050406 -0.005865471125447732 -0.023215793609564595 -0.04254947925212213 -0.03853805535344323 0.04006440277662533 11.113646036167832 0.0170763474126531 -0.012802015932246141 0.019806134279931123 -0.0471127162193918 0.028776812872331935 -0.03696658889042008 0.008960994604051066 0.03209001461769471 4.764721149975095 0.03458209283159082 0.019875869081422855 0.023189952711370428 -0.02689904959388318 -0.03236612543466645 -0.019677820415428298 -0.0010463549054871301 -0.04614177087167678 -5.576130233762295 0.0008771296125978358 -0.00883218335123249 -6.7490958507801535 0.013377251473756239 0.018307756282329134 -6.744914649621154 -0.026361348981600474 0.040072948757923985 0.021652307396227595 -0.042000096260139244 -0.017053536879743533 8.007953438790256 3.454337535988785 -19.219627960578364 0.024214195791584237 10.359012702282273 -0.0022784482224991673 -5.63272058137771 -15.683475950572339 3.1475407302464244 0.0034566491837773176 -0.01696881463876693 -0.01043025587811078 -0.008021360963772825 4.648406130117699 0.047612674296836785 12.460613855720995 -8.196846151947486 6.912706764592428 -0.013885758927930288 46.3756066410694 -0.04446339650045498 -4.314759795725768 -14.78702816222389 -3.8696687860916885 -0.03262453132411078 -0.02853823875679863 0.022165145523695143 0.047084866335451996 -10.73895685267766 -0.012882914781289577 
0.02670460192431834 -0.04498557012201842 -0.04526705338359949 0.007333256812787498 0.015338100895502825 -0.007021423117124739 -1.1380048921248755 0.8632735888767067 -1.080707347044966 -0.9013635179089586 3.862692740250215 0.41112646348580617 -1.2005882599148983 -1.712302049804017 -0.8006163795757012 1.0909661402232727 0.4714800140768983 -0.7502342864715089 1.007134507712626 12.237029840297906 -3.1673780448306346 0.1568246286901463 -0.9624079952821799 -9.192502644602941 1.2044826739168226 -16.782065893377307 -0.7720639281347431 -4.9233257897907885 1.624420390334261 -16.033365020384117 72.9751981589697 22.040340105583773 2.0368782580172136 1.0373968184155424 1.5963349371945428 42.309207560870995 20.24176108657862 -0.09433688531771427 -3.783878794467028 4.544535277012091 -0.10800800632508183 -1.5995200614558627 -0.04621155356610829 0.021892350861185367 -56.271737220913764 0.039130561277810644 -0.03188088030243287 -56.24784128474262 -38.74458390371654 0.0002369250112924403 0.012689547085004431 0.04354759457265735 0.00659690818139192 -0.0008742775006214747 0.02443608548844777 0.0035928819640300576 -0.032899064173379594 -36.730019540217825 0.018297825892194957 0.005461634821308489 0.016445173853570697 -0.028680826905540656 0.041653766451901775 0.0086149491805711 0.005514354955432773 0.010832726910217293 -19.736754774243835 -0.026553342859180925 0.039956804784611284 -0.037137865355000174 -0.010423802586988206 0.012628334410576779 -0.03385137898297703 0.04840835843846723 -0.020703176547444115 24.084002784677416 -0.041133288567556686 0.0076636648636644504 28.89006041495766 0.04293047617697687 -0.0070794198340761475 28.896026216323644 -0.008095057934642876 -0.016111575951408733 3.5389946386172437 0.9271664295963847 13.542540301738983 -72.19177885181446 27.6822810404646 0.38140727132403573 -0.4911526151873119 -9.146793675403009 -42.68556823439193 -13.852537475882583 -0.8069168737435479 3.385914085836052 -0.4814968310613942 0.09197957734473741 -8.109194344557155 0.014473583334530424 -0.00788838199185534 44.54270922633711 0.017593294385803177 -0.011232724758157711 44.60805748716192 12.465338757726649 -0.0333937046139292 -0.009000528499026597 0.015035251616575328 0.013926218895352975 -0.023904364954699605 0.009067038972927119 0.011188498201822576 -0.006650280806971475 11.083487902979751 0.042319201269471494 -0.02002394438340695 0.049188439847385454 0.0066713830885795225 -0.014507839814776116 0.002715458687917406 -0.009752481489154132 -0.020232802777226503 4.777282190987174 0.048819843208943774 -0.01590279181860083 0.016487296557754688 0.030464706091294837 0.007157016864328466 0.003140605103984076 -0.011098047903610308 0.049348563280540984 -5.5912726415516305 0.02818170475280111 0.013360767140966498 -6.741825406545282 0.02839282608242502 0.013481685887481788 -6.6878593339792065 -0.007375957129443882 0.025981290847448695 0.013547307813001548 -0.040816719414503544 0.015864220484586595 8.078938002478225 3.511698991115983 -19.177400596278535 -0.03327109137778074 10.437615021300184 -0.0001867747905286675 -5.6357562095473375 -15.637146973267143 3.227901334751473 -0.02535716767354486 0.03081355932642035 -0.03244860867761867 0.0002951330915984811 4.651087020981612 0.031510184722171986 12.499081078883794 -8.279919624109093 6.861094884051016 -0.007639813822963399 46.3548048780059 -0.028184908584300637 -4.307800069417201 -14.74858760092921 -3.8449726299573066 0.03212042249723739 0.026216085994923605 0.01660434725066038 -0.023284811189362223 -10.781588177318376 -0.012981308511397319 
